<?xml version="1.0" encoding="UTF-8"?>
<svg xmlns="http://www.w3.org/2000/svg" width="681" height="244" viewBox="0 0 681 244" fill="none">
  <path d="M101.208 158.571L125.331 182.611L230.891 77.4219L374.349 220.385L521.412 73.8361L497.283 49.7897L374.349 172.299L230.891 29.3291L101.208 158.571Z" fill="#EBBA58"></path>
  <mask id="mask0_471_7407" style="mask-type:luminance" maskUnits="userSpaceOnUse" x="101" y="29" width="421" height="192">
    <path d="M101.208 158.572L125.331 182.611L230.891 77.4223L374.349 220.385L521.412 73.8366L497.283 49.7902L374.349 172.299L230.891 29.3296L101.208 158.572Z" fill="white"></path>
  </mask>
  <g mask="url(#mask0_471_7407)">
    <path d="M416.61 -151.855L18.2537 76.9734L205.996 401.554L604.353 172.726L416.61 -151.855Z" fill="#EBBA58"></path>
  </g>
  <path d="M468.888 9.15125L537.018 107.939L588.805 -0.255127L468.888 9.15125Z" fill="#EBBA58"></path>
  <mask id="mask1_471_7407" style="mask-type:luminance" maskUnits="userSpaceOnUse" x="468" y="-1" width="121" height="109">
    <path d="M468.888 9.15076L537.019 107.939L588.805 -0.255615L468.888 9.15076Z" fill="white"></path>
  </mask>
  <g mask="url(#mask1_471_7407)">
    <path d="M558.892 -51.9742L421.913 26.7107L498.79 159.62L635.769 80.9352L558.892 -51.9742Z" fill="#EBBA58"></path>
  </g>
  <mask id="mask2_471_7407" style="mask-type:luminance" maskUnits="userSpaceOnUse" x="132" y="1" width="426" height="240">
    <path d="M557.216 1.93091H132.797V240.825H557.216V1.93091Z" fill="white"></path>
  </mask>
  <g mask="url(#mask2_471_7407)">
    <path d="M161.674 205.194L143.463 208.582L145.337 244.715L166.323 246.165L174.612 244.729L161.674 205.194Z" fill="#BBB9B3"></path>
    <path d="M350.694 64.0766L349.672 60.6394C349.672 60.6394 362.277 62.1529 365.286 77.1607C367.841 89.7285 366.797 96.7726 379.92 100.316C391.275 103.385 403.212 125.614 388.379 140.042C373.547 154.47 327.274 141.103 330.745 88.5686L350.694 64.0766Z" fill="url(#paint0_linear_471_7407)"></path>
    <path d="M335.989 96.4475L336.266 107L324.003 109.121L324.783 126.392L340.645 132.383L344.591 139.844L360.204 122.969L366.826 109.532L357.351 107.537C357.351 107.537 351.801 99.4462 354.406 91.7584C355.911 87.3452 335.989 96.4475 335.989 96.4475Z" fill="#ECCDBC"></path>
    <g style="mix-blend-mode:multiply" opacity="0.46">
      <path d="M345.031 225.258C352.554 224.169 364.974 222.981 360.304 228.278C356.89 232.139 351.56 236.871 348.012 240.534H376.577C378.706 231.39 380.729 221.495 381.041 216.184C382.652 188.552 371.503 174.803 371.503 174.803C371.503 174.803 367.834 187.647 366.94 191.996C362.696 212.612 337.508 226.326 345.031 225.258Z" fill="#006E58"></path>
    </g>
    <path d="M347.075 98.3499L357.358 94.1064C357.358 94.1064 350.261 108.209 336.153 109.843V101.327L347.075 98.3499Z" fill="#E6B7A3"></path>
    <path d="M326.778 84.516C328.907 78.1508 324.734 65.774 341.83 63.7725C359.573 61.6507 359.346 90.9944 350.496 100.273C345.138 105.931 337.076 106.688 332.484 101.801C327.892 96.914 325.032 89.7355 326.778 84.516Z" fill="#ECCDBC"></path>
    <path d="M353.079 81.5668C353.788 78.8227 352.688 68.8363 342.107 74.5367C339.467 75.9512 324.166 77.2667 325.209 71.0005C326.252 64.7343 340.567 55.9998 355.477 62.6833C370.388 69.3668 364.299 100.832 355.612 104.411C352.069 97.3386 351.171 89.2394 353.079 81.5668Z" fill="url(#paint1_linear_471_7407)"></path>
    <path d="M345.138 110.911C352.398 110.84 355.35 107.375 355.35 107.375C355.35 107.375 374.732 106.632 380.019 116.166C385.306 125.699 371.261 157.589 371.261 157.589L378.358 192.456C378.358 192.456 362.823 192.039 351.624 196.374C340.425 200.71 319.56 200.024 314.89 193.461L312.967 188.736L318.098 130.622C318.098 130.622 314.216 102.905 319.298 105.027C327.658 108.485 336.082 106.561 336.082 106.561C336.175 107.42 336.588 108.212 337.239 108.782C338.381 109.871 340.645 110.96 345.138 110.911Z" fill="#CA503E"></path>
    <path d="M335.408 106.2C335.408 106.2 334.499 141.039 341.319 154.151C347.955 166.938 355.066 107.473 355.066 107.473C355.066 107.473 341.355 113.838 335.408 106.2Z" fill="white"></path>
    <path d="M358.622 119.878L371.95 111.151C371.95 111.151 383.759 110.734 387.889 139.398C387.889 139.398 390.253 162.264 383.943 174.81C381.325 180.023 375.505 186.013 371.055 190.143C370.453 190.705 369.718 191.106 368.919 191.308C368.119 191.511 367.282 191.51 366.483 191.304C365.685 191.098 364.951 190.694 364.351 190.13C363.751 189.566 363.303 188.86 363.05 188.078L358.856 174.57L358.622 119.878Z" fill="#CA503E"></path>
    <path d="M353.845 86.9353C353.845 86.9353 344.201 103.046 358.622 115.225C369.544 124.419 380.317 116.42 383.61 122.779C386.903 129.137 382.368 114.221 382.368 114.221L374.001 104.355L362.646 95.9881L353.845 86.9353Z" fill="url(#paint2_linear_471_7407)"></path>
    <path d="M351.808 88.8729C356.727 90.8108 358.735 81.8004 355.492 80.4425C352.248 79.0846 351.567 83.4059 351.567 83.4059" fill="#ECCDBC"></path>
    <path d="M284.097 41.3741C283.869 40.094 283.869 27.8232 283.869 27.8232C283.869 27.8232 278.831 16.281 277.922 16.4224C277.014 16.5639 276.134 18.0845 276.574 20.8922C277.052 23.219 277.746 25.4967 278.646 27.6959C278.646 27.6959 276.751 34.6552 275.807 36.8406C274.863 39.026 272.486 45.8014 274.991 48.6234C278.994 53.1356 279.661 72.6697 279.661 72.6697L294.174 71.1774C294.174 71.1774 284.295 42.6259 284.097 41.3741Z" fill="#ECCDBC"></path>
    <path d="M279.292 31.1477C279.292 31.1477 277.617 25.1079 276.617 25.2635C275.616 25.419 274.722 25.6454 274.914 27.4701C275.105 29.2948 276.539 37.9585 276.539 37.9585L279.292 31.1477Z" fill="#ECCDBC"></path>
    <path d="M289.433 49.9883L301.427 93.5759C301.427 93.5759 314.28 104.566 323.115 106.214C331.951 107.862 326.025 154.307 318.226 148.996C311.228 144.215 292.237 119.107 285.275 109.446C283.082 106.413 281.67 102.889 281.165 99.1843L275.388 52.1171L289.433 49.9883Z" fill="#CA503E"></path>
    <path d="M271.187 58.2774C271.4 57.0114 271.627 44.7407 271.627 44.7407C271.627 44.7407 276.836 33.2762 277.744 33.4248C278.653 33.5733 279.505 35.1151 279.029 37.9087C278.516 40.2297 277.786 42.498 276.85 44.6841C276.85 44.6841 278.646 51.6717 279.568 53.8783C280.491 56.0849 282.762 62.8887 280.214 65.6681C276.141 70.1238 269.193 86.3763 269.193 86.3763L259.335 76.8073C259.335 76.8073 270.974 59.5363 271.187 58.2774Z" fill="#E6B7A3"></path>
    <path d="M276.141 48.1281C276.141 48.1281 277.908 42.1165 278.909 42.2862C279.91 42.456 280.79 42.6964 280.577 44.5141C280.364 46.3317 278.795 54.9813 278.795 54.9813L276.141 48.1281Z" fill="#E6B7A3"></path>
    <path d="M190.708 113.86C187.16 107.608 180.063 106.681 175.336 112.056C174.47 113.032 172.788 114.107 171.88 115.296C164.549 124.893 157.466 132.941 152.576 138.189C147.686 143.437 144.542 146.945 144.202 152.702C143.861 158.459 150.22 176.26 152.682 179.74C155.145 183.22 171.227 169.676 171.227 168.926C171.227 168.176 190.708 113.86 190.708 113.86Z" fill="#E6B7A3"></path>
    <path d="M201.744 128.981L213.922 106.504C214.124 106.145 214.401 105.833 214.734 105.589C215.067 105.345 215.448 105.175 215.852 105.09L243.921 97.0202C244.371 96.9202 244.791 96.7167 245.149 96.4261L270.279 60.1514C271.805 58.5601 270.442 65.6538 271.074 67.7543C271.074 67.7543 278.746 66.941 278.135 68.5959C263.196 109.121 251.224 120.982 251.224 120.982C250.975 121.279 212.048 141.301 212.048 141.301C211.448 141.623 210.75 141.719 210.084 141.571C209.418 141.423 208.828 141.041 208.422 140.495L202.035 132.078C201.688 131.647 201.475 131.123 201.423 130.573C201.372 130.022 201.483 129.469 201.744 128.981Z" fill="#E6B7A3"></path>
    <path d="M188.834 193.687L200.835 204.119L210.132 244.927L166.315 246.165C166.315 246.165 132.115 212.302 145.848 188.637C159.58 164.973 188.834 193.687 188.834 193.687Z" fill="#C8C6BF"></path>
    <path d="M203.78 90.4783L196.918 88.2646C196.918 88.2646 196.442 104.659 192.596 110.897C188.749 117.134 213.659 109.341 213.659 109.341L215.079 94.8986L203.78 90.4783Z" fill="#E6B7A3"></path>
    <path d="M199.252 90.7117L214.021 99.6725L214.489 100.931L214.078 103.76C214.078 103.76 203.333 103.916 199.252 90.7117Z" fill="#E0A28A"></path>
    <path d="M207.031 62.4713C199.039 64.593 193.44 72.3728 194.966 85.1032C196.286 95.8745 206.626 101.971 213.475 101.115C218.677 100.472 223.936 95.3441 225.539 87.1118C226.106 86.989 226.633 86.7266 227.072 86.3486C227.511 85.9705 227.848 85.4888 228.052 84.9476C228.314 84.4667 225.923 83.4129 224.667 79.226C224.722 79.0443 224.755 78.8567 224.766 78.6672C225.412 66.7926 217.158 59.7625 207.031 62.4713Z" fill="#E6B7A3"></path>
    <path d="M204.1 77.4436C204.1 77.4436 208.401 81.192 208.642 77.7548C208.883 74.3175 207.166 69.9751 212.191 70.8803C217.215 71.7856 224.965 72.6343 226.498 67.2875C228.542 60.2151 221.942 59.133 214.632 59.4371C208.564 59.6846 197.649 56.9334 192.766 64.112C187.883 71.2905 188.508 73.094 187.862 82.1468C187.429 88.4342 196.073 98.0032 196.073 98.0032C196.073 98.0032 197.251 97.9113 199.913 93.1657C203.043 87.5926 204.81 86.0437 204.81 86.0437C204.81 86.0437 199.579 79.2753 204.1 77.4436Z" fill="url(#paint3_linear_471_7407)"></path>
    <path d="M208.642 80.2727C208.642 80.2727 207.478 76.0292 204.206 75.7817C199.848 75.4846 198.223 88.3141 206.335 88.0454" fill="#E6B7A3"></path>
    <path d="M454.906 103.449V160.602C454.906 160.602 474.068 161.189 473.465 160.602C472.861 160.015 473.465 134.052 473.465 134.052L454.906 103.449Z" fill="#A0B8D6"></path>
    <path d="M492.69 166.698C494.273 177.399 493.287 189.585 492.69 194.196C492.094 198.807 478.497 239.955 478.497 239.955H511.682L520.816 196.353L508.68 163.021L492.69 166.698Z" fill="url(#paint4_linear_471_7407)"></path>
    <path d="M492.69 166.698C494.273 177.399 493.287 189.585 492.69 194.196C492.094 198.807 475.778 240.302 475.778 240.302H511.682L520.816 196.353L508.68 163.021L492.69 166.698Z" fill="#343535"></path>
    <path d="M531.795 155.361C536.677 170.624 558.586 175.567 552.539 200.229C548.181 218.03 539.282 240.302 539.282 240.302H497.871C497.871 240.302 510.859 201.495 510.859 196.353C510.859 191.212 502.704 164.796 502.704 164.796L531.795 155.361Z" fill="#4C4B4C"></path>
    <path d="M461.563 90.5205C456.681 92.8403 452.21 103.18 456.681 112.891C461.152 122.601 461.776 120.861 463.472 128.45C465.169 136.039 464.501 140.297 478.49 149.788C492.478 159.279 492.059 161.811 492.683 166.67C493.308 171.529 532.71 170.468 532.072 152.32C531.433 134.172 532.441 113.216 520.716 103.329C508.992 93.4414 461.563 90.5205 461.563 90.5205Z" fill="#96B0D2"></path>
    <path d="M456.68 68.0513V122.509C456.68 122.509 476.552 111.901 476.346 101.511C476.14 91.1216 467.375 68.0371 467.375 68.0371L456.68 68.0513Z" fill="#42171E"></path>
    <path d="M470.612 100.733C470.612 100.733 473.259 104.977 474.16 106.83C475.061 108.683 471.08 116.731 472.393 123.705C473.706 130.678 482.329 129.469 484.252 123.705C484.834 121.972 486.381 109.652 486.381 109.652V89.283L470.612 100.733Z" fill="#E0A28A"></path>
    <path d="M458.994 66.4952C456.283 83.2569 459.264 98.7032 467.376 100.535C475.487 102.367 487.105 93.5262 487.105 85.7252C487.105 77.9243 494.912 57.6193 486.026 52.9797C477.141 48.3402 460.719 55.8158 458.994 66.4952Z" fill="#E6B7A3"></path>
    <path d="M465.807 64.9677C463.475 66.9244 461.019 68.7293 458.454 70.371C455.346 72.217 456.105 61.587 462.123 56.5939C468.142 51.6007 476.033 47.3502 479.227 50.2287C479.227 50.2287 489.255 47.4633 495.33 57.6618C501.405 67.8603 501.838 77.005 503.754 79.5865C505.67 82.1679 508.871 83.7309 507.381 88.5119C507.381 88.5119 518.026 86.3902 519.644 93.7243C521.262 101.058 520.709 103.421 520.709 103.421C520.709 103.421 517.395 100.839 510.596 98.4699C510.596 98.4699 506.018 102.063 501.646 102.063C497.275 102.063 491.81 119.574 484.11 119.574L484.046 77.7193C484.046 77.7193 466.701 75.5127 465.807 64.9677Z" fill="#42171E"></path>
    <path d="M368.501 154.017C348.359 174.923 331.007 238.696 331.007 238.696H359.927L378.003 196.36L368.501 154.017Z" fill="#2D5D8C"></path>
    <path d="M473.429 157.469C469.213 152.695 446.759 136.959 418.137 138.699C392.9 140.205 372.482 147.971 368.5 154.018C365.591 158.438 371.971 188.269 376.406 200.151C380.575 211.481 382.737 223.446 382.794 235.514C382.794 235.514 454.175 235.096 454.586 235.514C454.998 235.931 463.458 209.268 464.572 196.007C465.686 182.746 463.167 168.106 473.429 157.469Z" fill="#164B7F"></path>
    <path d="M434.8 113.945C434.8 113.945 435.155 136.053 434.8 142.652C434.445 149.25 424.155 155.191 420.372 155.382C416.589 155.573 408.123 149.936 406.796 140.53V120.543L434.8 113.945Z" fill="#ECCDBC"></path>
    <path d="M434.935 125.954C434.892 119.546 434.8 113.931 434.8 113.931L406.796 120.529V136.902C409.131 147.129 424.616 144.335 428.299 134.639C430.414 129.073 432.196 127.446 434.935 125.954Z" fill="#E6B7A3"></path>
    <path d="M399.372 105.358C400.423 121.554 407.051 137.234 417.548 135.579C430.563 133.528 434.516 113.853 434.005 103.131C433.494 92.4088 427.356 85.7041 418.023 85.6899C409.145 85.6829 398.485 91.645 399.372 105.358Z" fill="#ECCDBC"></path>
    <path d="M437.064 110.748C436.355 113.98 434.786 116.406 433.516 116.222C432.245 116.038 431.82 113.23 432.515 109.998C433.211 106.766 434.793 104.34 436.064 104.524C437.334 104.708 437.76 107.523 437.064 110.748Z" fill="#ECCDBC"></path>
    <path d="M399.585 107.891C397.598 104.864 397.456 103.648 397.605 98.6543C397.754 93.6612 402.005 93.4561 401.92 91.3061C401.835 89.156 404.574 83.392 415.795 82.9323C427.015 82.4725 426.348 87.593 429.818 87.9254C433.289 88.2578 438.682 91.8082 436.064 104.524C436.064 104.524 433.012 104.814 431.805 110.96C431.78 111.061 431.726 111.152 431.65 111.222C431.574 111.293 431.48 111.341 431.378 111.36C431.276 111.38 431.17 111.37 431.074 111.331C430.977 111.293 430.894 111.228 430.833 111.144C430.363 110.421 430.016 109.625 429.804 108.789C428.967 105.72 425.603 110.338 424.999 104.213C424.559 99.8496 413.879 107.856 405.951 100.776C405.951 100.776 404.773 102.339 401.395 102.24C399.436 102.198 399.585 107.891 399.585 107.891Z" fill="#416CA3"></path>
    <path d="M406.789 166.5C406.789 166.5 407.711 167.674 409.443 165.05C411.174 162.426 417.065 154.442 419.116 155.234C414.957 154.378 407.988 148.996 406.796 140.523V139.816C403.496 140.268 400.33 140.834 397.321 141.464C396.484 146.16 400.011 161.323 406.789 166.5Z" fill="#839FC9"></path>
    <path d="M434.793 142.652C434.481 148.387 426.681 153.628 422.146 155.007C424.276 154.18 432.153 164.491 433.502 166.762C434.85 169.032 437.369 165.955 439.889 159.618C441.699 155.014 444.495 147.086 443.324 141.485C440.554 140.712 437.744 140.089 434.907 139.617C434.871 140.806 434.836 141.852 434.793 142.652Z" fill="#839FC9"></path>
    <path d="M487.29 222.259C487.29 203.928 481.924 167.186 473.429 157.469C473.429 157.469 460.122 164.541 455.914 187.046C454.651 193.757 456.794 212.952 457.333 221.05L487.29 222.259Z" fill="#2D5D8C"></path>
    <path d="M435.396 240.302H475.778C481.754 240.302 488.191 235.436 487.289 222.26C486.388 209.084 464.742 210.944 457.347 221.05L435.098 224.438L435.396 240.302Z" fill="#2D5D8C"></path>
    <path d="M415.056 239.502L416.965 237.713L422.771 239.764C423.78 240.122 424.843 240.304 425.915 240.302H437.44C437.44 240.302 442.891 239.142 443.068 232.727C443.245 226.312 437.71 224.438 435.261 224.438H422.629C421.995 224.438 421.362 224.374 420.741 224.247L411.756 222.373C410.428 222.097 409.044 222.316 407.867 222.988L402.779 225.909C401.79 226.47 400.883 227.162 400.082 227.967L390.856 237.197C390.6 237.451 390.426 237.775 390.355 238.128C390.284 238.481 390.32 238.847 390.459 239.18C390.597 239.513 390.831 239.797 391.132 239.996C391.433 240.196 391.786 240.302 392.147 240.302H413.034C413.785 240.298 414.507 240.013 415.056 239.502Z" fill="#ECCDBC"></path>
    <path d="M522.135 105.663C513.477 100.712 498.311 114.857 501.554 131.619C504.798 148.381 486.346 169.181 486.346 169.181C486.346 169.181 465.431 177.555 457.035 179.146C459.695 182.901 461.522 187.179 462.393 191.693C476.14 190.561 495.87 187.774 503.84 181.155C515.904 171.147 528.679 134.25 528.679 122.524C528.714 108.881 522.135 105.663 522.135 105.663Z" fill="#A0B8D6"></path>
    <path d="M454.835 179.401H427.774C427.774 179.401 408.442 185.928 407.938 187.046C407.434 188.163 406.434 194.79 407.938 196.353C409.443 197.916 419.237 200.668 421.749 200.165C424.261 199.663 443.835 192.386 448.356 192.386C449.881 192.386 455.353 192.237 462.386 191.678C461.515 187.17 459.691 182.898 457.035 179.146C456.311 179.294 455.574 179.379 454.835 179.401Z" fill="#E6B7A3"></path>
    <path d="M173.398 157.589C180.062 142.298 199.26 108.124 199.26 108.124C195.288 105.97 190.683 105.279 186.251 106.172C181.638 107.205 179.53 107.311 170.602 116.781C163.172 124.653 158.828 131.881 153.903 136.626L173.398 157.589Z" fill="#1E1F1F"></path>
    <path d="M190.616 106.165C190.616 106.165 200.977 108.647 214.554 105.337C214.554 105.337 227.79 117.064 220.905 140.389C216.229 156.21 209.174 171.875 205.122 180.306C203.014 184.692 201.759 189.436 201.424 194.288L200.842 202.704C200.842 202.704 192.851 210.554 180.538 205.858C172.611 202.831 164.641 196.777 158.254 192.951C156.136 191.684 153.779 190.864 151.33 190.544C148.88 190.224 146.391 190.41 144.017 191.091C144.017 191.091 152.675 172.625 159.63 163.558C166.585 154.491 180.857 110.104 190.616 106.165Z" fill="#1E1F1F"></path>
    <path d="M200.863 130.607L214.553 105.338L244.609 96.8435L250.826 121.434L209.876 142.426L200.863 130.607Z" fill="#1E1F1F"></path>
  </g>
  <path d="M387.756 243.646H430.167C431.335 243.644 432.454 243.181 433.279 242.357C434.104 241.534 434.567 240.418 434.567 239.254C434.567 238.723 434.356 238.214 433.979 237.839C433.602 237.464 433.092 237.253 432.559 237.253H387.756C387.223 237.253 386.712 237.464 386.336 237.839C385.959 238.214 385.747 238.723 385.747 239.254V241.645C385.747 242.176 385.959 242.685 386.336 243.06C386.712 243.435 387.223 243.646 387.756 243.646Z" fill="#E58322"></path>
  <path d="M312.691 243.646H401.275C402.07 243.641 402.853 243.455 403.564 243.101C404.274 242.746 404.894 242.234 405.374 241.603C405.855 240.972 406.183 240.239 406.333 239.461C406.484 238.683 406.453 237.882 406.243 237.118L390.629 180.397C390.133 178.613 389.064 177.04 387.587 175.918C386.109 174.795 384.304 174.185 382.447 174.18H293.862C293.067 174.183 292.283 174.368 291.572 174.722C290.86 175.076 290.24 175.589 289.759 176.22C289.279 176.852 288.951 177.585 288.801 178.363C288.651 179.142 288.683 179.944 288.895 180.708L304.508 237.422C305.003 239.207 306.071 240.782 307.549 241.905C309.026 243.029 310.832 243.64 312.691 243.646Z" fill="#E58322"></path>
  <path d="M108.895 17.7017H57.0659C55.1414 17.7017 53.5813 19.2564 53.5813 21.1742V58.63C53.5813 60.5479 55.1414 62.1026 57.0659 62.1026H108.895C110.819 62.1026 112.38 60.5479 112.38 58.63V21.1742C112.38 19.2564 110.819 17.7017 108.895 17.7017Z" fill="#CA503E"></path>
  <mask id="mask3_471_7407" style="mask-type:luminance" maskUnits="userSpaceOnUse" x="53" y="17" width="60" height="46">
    <path d="M108.895 17.7017H57.0659C55.1414 17.7017 53.5813 19.2564 53.5813 21.1742V58.63C53.5813 60.5479 55.1414 62.1026 57.0659 62.1026H108.895C110.819 62.1026 112.38 60.5479 112.38 58.63V21.1742C112.38 19.2564 110.819 17.7017 108.895 17.7017Z" fill="white"></path>
  </mask>
  <g mask="url(#mask3_471_7407)">
    <path d="M112.38 17.7017H53.5813V62.1026H112.38V17.7017Z" fill="#CA503E"></path>
  </g>
  <mask id="mask4_471_7407" style="mask-type:luminance" maskUnits="userSpaceOnUse" x="53" y="17" width="60" height="46">
    <path d="M112.38 17.7017H53.5813V62.1026H112.38V17.7017Z" fill="white"></path>
  </mask>
  <g mask="url(#mask4_471_7407)">
    <path d="M78.8257 32.7375L91.2808 39.902L78.8257 47.0664V32.7375Z" fill="#FDF5F4"></path>
  </g>
  <path d="M157.119 85.739H120.016C118.636 85.739 117.518 86.8536 117.518 88.2285V115.04C117.518 116.415 118.636 117.53 120.016 117.53H157.119C158.498 117.53 159.617 116.415 159.617 115.04V88.2285C159.617 86.8536 158.498 85.739 157.119 85.739Z" fill="#CA503E"></path>
  <mask id="mask5_471_7407" style="mask-type:luminance" maskUnits="userSpaceOnUse" x="117" y="85" width="43" height="33">
    <path d="M157.118 85.7385H120.015C118.636 85.7385 117.517 86.8531 117.517 88.228V115.04C117.517 116.415 118.636 117.529 120.015 117.529H157.118C158.498 117.529 159.616 116.415 159.616 115.04V88.228C159.616 86.8531 158.498 85.7385 157.118 85.7385Z" fill="white"></path>
  </mask>
  <g mask="url(#mask5_471_7407)">
    <path d="M159.616 85.7385H117.517V117.529H159.616V85.7385Z" fill="#CA503E"></path>
  </g>
  <mask id="mask6_471_7407" style="mask-type:luminance" maskUnits="userSpaceOnUse" x="117" y="85" width="43" height="33">
    <path d="M159.616 85.7385H117.517V117.529H159.616V85.7385Z" fill="white"></path>
  </mask>
  <g mask="url(#mask6_471_7407)">
    <path d="M135.593 96.5024L144.507 101.63L135.593 106.765V96.5024Z" fill="#FDF5F4"></path>
  </g>
  <path d="M634.942 176.812H594.816C593.326 176.812 592.119 178.015 592.119 179.499V208.503C592.119 209.988 593.326 211.191 594.816 211.191H634.942C636.431 211.191 637.639 209.988 637.639 208.503V179.499C637.639 178.015 636.431 176.812 634.942 176.812Z" fill="#DD5E4E"></path>
  <mask id="mask7_471_7407" style="mask-type:luminance" maskUnits="userSpaceOnUse" x="592" y="176" width="46" height="36">
    <path d="M634.942 176.812H594.815C593.326 176.812 592.119 178.015 592.119 179.5V208.504C592.119 209.988 593.326 211.191 594.815 211.191H634.942C636.431 211.191 637.638 209.988 637.638 208.504V179.5C637.638 178.015 636.431 176.812 634.942 176.812Z" fill="white"></path>
  </mask>
  <g mask="url(#mask7_471_7407)">
    <path d="M637.638 176.812H592.119V211.191H637.638V176.812Z" fill="#DD5E4E"></path>
  </g>
  <mask id="mask8_471_7407" style="mask-type:luminance" maskUnits="userSpaceOnUse" x="592" y="176" width="46" height="36">
    <path d="M637.638 176.812H592.119V211.191H637.638V176.812Z" fill="white"></path>
  </mask>
  <g mask="url(#mask8_471_7407)">
    <path d="M611.671 188.453L621.309 193.997L611.671 199.549V188.453Z" fill="#FDF5F4"></path>
  </g>
  <mask id="mask9_471_7407" style="mask-type:luminance" maskUnits="userSpaceOnUse" x="390" y="29" width="54" height="35">
    <path d="M439.564 29.3296H394.391C392.318 29.3296 390.637 31.0046 390.637 33.0709V59.727C390.637 61.7933 392.318 63.4684 394.391 63.4684H439.564C441.637 63.4684 443.318 61.7933 443.318 59.727V33.0709C443.318 31.0046 441.637 29.3296 439.564 29.3296Z" fill="white"></path>
  </mask>
  <g mask="url(#mask9_471_7407)">
    <path d="M390.703 27.267L389.278 63.4148L443.223 65.527L444.648 29.3792L390.703 27.267Z" fill="url(#paint5_linear_471_7407)"></path>
  </g>
  <path d="M439.563 29.3291H394.391C392.318 29.3291 390.637 31.0042 390.637 33.0704V59.7265C390.637 61.7928 392.318 63.4679 394.391 63.4679H439.563C441.637 63.4679 443.317 61.7928 443.317 59.7265V33.0704C443.317 31.0042 441.637 29.3291 439.563 29.3291Z" fill="#CA503E"></path>
  <mask id="mask10_471_7407" style="mask-type:luminance" maskUnits="userSpaceOnUse" x="390" y="29" width="54" height="35">
    <path d="M439.564 29.3296H394.391C392.318 29.3296 390.637 31.0046 390.637 33.0709V59.727C390.637 61.7933 392.318 63.4684 394.391 63.4684H439.564C441.637 63.4684 443.318 61.7933 443.318 59.727V33.0709C443.318 31.0046 441.637 29.3296 439.564 29.3296Z" fill="white"></path>
  </mask>
  <g mask="url(#mask10_471_7407)">
    <path d="M390.703 27.267L389.278 63.4148L443.223 65.527L444.648 29.3792L390.703 27.267Z" fill="#CA503E"></path>
  </g>
  <mask id="mask11_471_7407" style="mask-type:luminance" maskUnits="userSpaceOnUse" x="390" y="29" width="54" height="35">
    <path d="M443.318 29.3296H390.637V63.4754H443.318V29.3296Z" fill="white"></path>
  </mask>
  <g mask="url(#mask11_471_7407)">
    <path d="M414.078 41.3736L421.062 45.3837C421.241 45.4884 421.39 45.6382 421.494 45.8181C421.598 45.998 421.652 46.2018 421.652 46.4092C421.652 46.6166 421.598 46.8203 421.494 47.0002C421.39 47.1802 421.241 47.3299 421.062 47.4347L414.078 51.4518C413.898 51.5547 413.694 51.6086 413.486 51.608C413.278 51.6075 413.074 51.5525 412.895 51.4486C412.715 51.3448 412.566 51.1956 412.462 51.0162C412.359 50.8368 412.304 50.6334 412.304 50.4263V42.3849C412.303 42.1777 412.357 41.9738 412.461 41.7941C412.565 41.6144 412.714 41.4652 412.894 41.3618C413.075 41.2583 413.279 41.2043 413.487 41.2051C413.695 41.2059 413.899 41.2616 414.078 41.3665" fill="white"></path>
  </g>
  <mask id="mask12_471_7407" style="mask-type:luminance" maskUnits="userSpaceOnUse" x="0" y="134" width="54" height="35">
    <path d="M49.8272 134.518H4.65505C2.58161 134.518 0.900757 136.193 0.900757 138.259V164.915C0.900757 166.981 2.58161 168.656 4.65505 168.656H49.8272C51.9006 168.656 53.5815 166.981 53.5815 164.915V138.259C53.5815 136.193 51.9006 134.518 49.8272 134.518Z" fill="white"></path>
  </mask>
  <g mask="url(#mask12_471_7407)">
    <path d="M0.977658 132.445L-0.44751 168.592L53.4974 170.704L54.9226 134.557L0.977658 132.445Z" fill="url(#paint6_linear_471_7407)"></path>
  </g>
  <path d="M49.8267 134.518H4.65456C2.58112 134.518 0.900269 136.193 0.900269 138.259V164.915C0.900269 166.981 2.58112 168.656 4.65456 168.656H49.8267C51.9001 168.656 53.581 166.981 53.581 164.915V138.259C53.581 136.193 51.9001 134.518 49.8267 134.518Z" fill="#DD5E4E"></path>
  <mask id="mask13_471_7407" style="mask-type:luminance" maskUnits="userSpaceOnUse" x="0" y="134" width="54" height="35">
    <path d="M49.8272 134.518H4.65505C2.58161 134.518 0.900757 136.193 0.900757 138.259V164.915C0.900757 166.981 2.58161 168.656 4.65505 168.656H49.8272C51.9006 168.656 53.5815 166.981 53.5815 164.915V138.259C53.5815 136.193 51.9006 134.518 49.8272 134.518Z" fill="white"></path>
  </mask>
  <g mask="url(#mask13_471_7407)">
    <path d="M0.977658 132.445L-0.44751 168.592L53.4974 170.704L54.9226 134.557L0.977658 132.445Z" fill="#E37A3B"></path>
  </g>
  <mask id="mask14_471_7407" style="mask-type:luminance" maskUnits="userSpaceOnUse" x="0" y="134" width="54" height="35">
    <path d="M53.5815 134.518H0.900757V168.663H53.5815V134.518Z" fill="white"></path>
  </mask>
  <g mask="url(#mask14_471_7407)">
    <path d="M24.3417 146.548L31.3252 150.565C31.5049 150.669 31.6541 150.818 31.7579 150.997C31.8616 151.177 31.9162 151.38 31.9162 151.587C31.9162 151.794 31.8616 151.997 31.7579 152.177C31.6541 152.356 31.5049 152.505 31.3252 152.609L24.3417 156.654C24.1615 156.757 23.9572 156.811 23.7495 156.811C23.5417 156.81 23.3378 156.755 23.1581 156.651C22.9784 156.547 22.8292 156.398 22.7256 156.219C22.6219 156.039 22.5674 155.836 22.5675 155.629V147.566C22.5686 147.36 22.624 147.157 22.7282 146.979C22.8324 146.8 22.9816 146.652 23.1611 146.549C23.3406 146.446 23.5441 146.392 23.7512 146.392C23.9584 146.391 24.162 146.445 24.3417 146.548Z" fill="white"></path>
  </g>
  <mask id="mask15_471_7407" style="mask-type:luminance" maskUnits="userSpaceOnUse" x="645" y="140" width="36" height="24">
    <path d="M678.325 140.02H647.73C646.323 140.02 645.183 141.157 645.183 142.559V160.615C645.183 162.018 646.323 163.154 647.73 163.154H678.325C679.733 163.154 680.873 162.018 680.873 160.615V142.559C680.873 141.157 679.733 140.02 678.325 140.02Z" fill="white"></path>
  </mask>
  <g mask="url(#mask15_471_7407)">
    <path d="M645.209 138.617L644.244 163.111L680.793 164.542L681.759 140.048L645.209 138.617Z" fill="url(#paint7_linear_471_7407)"></path>
  </g>
  <path d="M678.326 140.02H647.731C646.324 140.02 645.183 141.157 645.183 142.559V160.615C645.183 162.018 646.324 163.154 647.731 163.154H678.326C679.733 163.154 680.874 162.018 680.874 160.615V142.559C680.874 141.157 679.733 140.02 678.326 140.02Z" fill="#E37A3B"></path>
  <mask id="mask16_471_7407" style="mask-type:luminance" maskUnits="userSpaceOnUse" x="645" y="140" width="36" height="24">
    <path d="M678.325 140.02H647.73C646.323 140.02 645.183 141.157 645.183 142.559V160.615C645.183 162.018 646.323 163.154 647.73 163.154H678.325C679.733 163.154 680.873 162.018 680.873 160.615V142.559C680.873 141.157 679.733 140.02 678.325 140.02Z" fill="white"></path>
  </mask>
  <g mask="url(#mask16_471_7407)">
    <path d="M645.209 138.617L644.244 163.111L680.793 164.542L681.759 140.048L645.209 138.617Z" fill="#E37A3B"></path>
  </g>
  <mask id="mask17_471_7407" style="mask-type:luminance" maskUnits="userSpaceOnUse" x="645" y="140" width="36" height="24">
    <path d="M680.873 140.02H645.183V163.154H680.873V140.02Z" fill="white"></path>
  </mask>
  <g mask="url(#mask17_471_7407)">
    <path d="M661.066 148.168L665.793 150.883C665.922 150.951 666.03 151.053 666.106 151.178C666.181 151.302 666.221 151.445 666.221 151.591C666.221 151.736 666.181 151.879 666.106 152.004C666.03 152.128 665.922 152.23 665.793 152.298L661.066 155.021C660.943 155.093 660.803 155.13 660.661 155.13C660.518 155.13 660.378 155.092 660.255 155.02C660.132 154.948 660.031 154.844 659.961 154.72C659.892 154.596 659.857 154.456 659.86 154.314V148.875C659.857 148.733 659.892 148.592 659.961 148.468C660.031 148.344 660.132 148.241 660.255 148.169C660.378 148.097 660.518 148.059 660.661 148.058C660.803 148.058 660.943 148.096 661.066 148.168Z" fill="white"></path>
  </g>
  <path d="M356.379 202.612H353.81L351.078 199.896H340.965L334.436 206.395V213.666L336.529 215.745H344.932L348.452 219.253L356.699 219.373L359.828 215.512V206.049L356.379 202.612Z" fill="white"></path>
  <path d="M350.972 209.295L344.712 206.537V212.053L350.972 209.295Z" fill="#E58322"></path>
  <defs>
    <linearGradient id="paint0_linear_471_7407" x1="398.634" y1="41.1053" x2="372.532" y2="91.2665" gradientUnits="userSpaceOnUse">
      <stop stop-color="#652935"></stop>
      <stop offset="0.5" stop-color="#652935"></stop>
      <stop offset="0.71" stop-color="#4B1B23"></stop>
      <stop offset="1" stop-color="#210607"></stop>
    </linearGradient>
    <linearGradient id="paint1_linear_471_7407" x1="372.773" y1="27.6463" x2="346.67" y2="77.8075" gradientUnits="userSpaceOnUse">
      <stop stop-color="#652935"></stop>
      <stop offset="0.5" stop-color="#652935"></stop>
      <stop offset="0.71" stop-color="#4B1B23"></stop>
      <stop offset="1" stop-color="#210607"></stop>
    </linearGradient>
    <linearGradient id="paint2_linear_471_7407" x1="402.14" y1="42.9304" x2="376.038" y2="93.0917" gradientUnits="userSpaceOnUse">
      <stop stop-color="#652935"></stop>
      <stop offset="0.5" stop-color="#652935"></stop>
      <stop offset="0.71" stop-color="#4B1B23"></stop>
      <stop offset="1" stop-color="#210607"></stop>
    </linearGradient>
    <linearGradient id="paint3_linear_471_7407" x1="189.047" y1="38.3894" x2="209.043" y2="77.959" gradientUnits="userSpaceOnUse">
      <stop stop-color="#652935"></stop>
      <stop offset="0.5" stop-color="#652935"></stop>
      <stop offset="0.71" stop-color="#4B1B23"></stop>
      <stop offset="1" stop-color="#210607"></stop>
    </linearGradient>
    <linearGradient id="paint4_linear_471_7407" x1="499.333" y1="258.082" x2="500.249" y2="141.626" gradientUnits="userSpaceOnUse">
      <stop stop-color="#001462"></stop>
      <stop offset="0.07" stop-color="#081E71"></stop>
      <stop offset="0.25" stop-color="#193595"></stop>
      <stop offset="0.44" stop-color="#2748B0"></stop>
      <stop offset="0.62" stop-color="#3055C4"></stop>
      <stop offset="0.81" stop-color="#365CD0"></stop>
      <stop offset="1" stop-color="#385FD4"></stop>
    </linearGradient>
    <linearGradient id="paint5_linear_471_7407" x1="425.009" y1="21.7628" x2="414.724" y2="284.444" gradientUnits="userSpaceOnUse">
      <stop stop-color="#EA6150"></stop>
      <stop offset="0.03" stop-color="#E27A6B"></stop>
      <stop offset="0.06" stop-color="#DA9286"></stop>
      <stop offset="0.1" stop-color="#D4A69C"></stop>
      <stop offset="0.14" stop-color="#CFB5AD"></stop>
      <stop offset="0.19" stop-color="#CCC0B8"></stop>
      <stop offset="0.27" stop-color="#CAC6BF"></stop>
      <stop offset="0.48" stop-color="#C9C8C1"></stop>
      <stop offset="1" stop-color="#C9C8C1"></stop>
    </linearGradient>
    <linearGradient id="paint6_linear_471_7407" x1="34.9988" y1="127.9" x2="24.7927" y2="388.56" gradientUnits="userSpaceOnUse">
      <stop stop-color="#EA6150"></stop>
      <stop offset="0.03" stop-color="#E27A6B"></stop>
      <stop offset="0.06" stop-color="#DA9286"></stop>
      <stop offset="0.1" stop-color="#D4A69C"></stop>
      <stop offset="0.14" stop-color="#CFB5AD"></stop>
      <stop offset="0.19" stop-color="#CCC0B8"></stop>
      <stop offset="0.27" stop-color="#CAC6BF"></stop>
      <stop offset="0.48" stop-color="#C9C8C1"></stop>
      <stop offset="1" stop-color="#C9C8C1"></stop>
    </linearGradient>
    <linearGradient id="paint7_linear_471_7407" x1="670.245" y1="136.606" x2="663.283" y2="314.42" gradientUnits="userSpaceOnUse">
      <stop stop-color="#EA6150"></stop>
      <stop offset="0.03" stop-color="#E27A6B"></stop>
      <stop offset="0.06" stop-color="#DA9286"></stop>
      <stop offset="0.1" stop-color="#D4A69C"></stop>
      <stop offset="0.14" stop-color="#CFB5AD"></stop>
      <stop offset="0.19" stop-color="#CCC0B8"></stop>
      <stop offset="0.27" stop-color="#CAC6BF"></stop>
      <stop offset="0.48" stop-color="#C9C8C1"></stop>
      <stop offset="1" stop-color="#C9C8C1"></stop>
    </linearGradient>
  </defs>
</svg>
